<svg xmlns="http://www.w3.org/2000/svg" xmlns:xlink="http://www.w3.org/1999/xlink" width="500" zoomAndPan="magnify" viewBox="0 0 375 374.999991" height="500" preserveAspectRatio="xMidYMid meet" version="1.0"><defs><g/><clipPath id="dee72cbcb2"><path d="M 302.136719 125 L 340.1875 125 L 340.1875 229 L 302.136719 229 Z M 302.136719 125 " clip-rule="nonzero"/></clipPath><clipPath id="2c5d56823a"><path d="M 34.601562 125 L 72.851562 125 L 72.851562 229 L 34.601562 229 Z M 34.601562 125 " clip-rule="nonzero"/></clipPath></defs><g fill="#4a87ce" fill-opacity="1"><g transform="translate(65.162903, 192.718406)"><g><path d="M 13.140625 0.5 C 12.453125 0.5 11.613281 0.453125 10.625 0.359375 C 7.414062 0.117188 4.59375 0 2.15625 0 C 1.5 -0.84375 1.171875 -1.800781 1.171875 -2.875 C 2.160156 -2.875 2.867188 -3.046875 3.296875 -3.390625 C 3.734375 -3.742188 3.953125 -4.335938 3.953125 -5.171875 L 3.953125 -26.328125 C 3.953125 -27.140625 3.734375 -27.71875 3.296875 -28.0625 C 2.867188 -28.40625 2.160156 -28.578125 1.171875 -28.578125 C 1.171875 -29.710938 1.5 -30.65625 2.15625 -31.40625 C 4.4375 -31.40625 6.488281 -31.460938 8.3125 -31.578125 C 10.144531 -31.703125 11.226562 -31.78125 11.5625 -31.8125 C 12.582031 -31.90625 13.316406 -31.953125 13.765625 -31.953125 C 17.097656 -31.953125 19.894531 -31.257812 22.15625 -29.875 C 24.425781 -28.5 26.109375 -26.632812 27.203125 -24.28125 C 28.296875 -21.925781 28.84375 -19.289062 28.84375 -16.375 C 28.84375 -13.164062 28.28125 -10.289062 27.15625 -7.75 C 26.03125 -5.21875 24.296875 -3.207031 21.953125 -1.71875 C 19.617188 -0.238281 16.679688 0.5 13.140625 0.5 Z M 12.78125 -3.234375 C 15.363281 -3.234375 17.347656 -4.21875 18.734375 -6.1875 C 20.128906 -8.15625 20.828125 -11.328125 20.828125 -15.703125 C 20.828125 -19.929688 20.082031 -23.09375 18.59375 -25.1875 C 17.113281 -27.289062 15.054688 -28.34375 12.421875 -28.34375 C 11.910156 -28.34375 11.550781 -28.316406 11.34375 -28.265625 L 11.34375 -3.328125 C 11.644531 -3.265625 12.125 -3.234375 12.78125 -3.234375 Z M 12.78125 -3.234375 "/></g></g></g><g fill="#4a87ce" fill-opacity="1"><g transform="translate(95.222868, 192.718406)"><g><path d="M 27 -12.28125 C 27 -8.113281 26.015625 -4.925781 24.046875 -2.71875 C 22.085938 -0.519531 19.171875 0.578125 15.296875 0.578125 C 11.398438 0.578125 8.34375 -0.484375 6.125 -2.609375 C 3.90625 -4.742188 2.796875 -7.816406 2.796875 -11.828125 L 2.796875 -26.328125 C 2.796875 -27.140625 2.582031 -27.71875 2.15625 -28.0625 C 1.738281 -28.40625 1.019531 -28.578125 0 -28.578125 C 0 -29.710938 0.34375 -30.65625 1.03125 -31.40625 L 12.28125 -31.40625 C 12.96875 -30.65625 13.3125 -29.710938 13.3125 -28.578125 C 12.300781 -28.578125 11.582031 -28.40625 11.15625 -28.0625 C 10.738281 -27.71875 10.53125 -27.140625 10.53125 -26.328125 L 10.53125 -10.890625 C 10.53125 -8.734375 10.988281 -7 11.90625 -5.6875 C 12.820312 -4.382812 14.222656 -3.734375 16.109375 -3.734375 C 17.992188 -3.734375 19.363281 -4.328125 20.21875 -5.515625 C 21.082031 -6.703125 21.515625 -8.253906 21.515625 -10.171875 L 21.515625 -26.328125 C 21.515625 -27.140625 21.265625 -27.71875 20.765625 -28.0625 C 20.273438 -28.40625 19.457031 -28.578125 18.3125 -28.578125 C 18.3125 -29.773438 18.644531 -30.71875 19.3125 -31.40625 L 29.203125 -31.40625 C 29.859375 -30.65625 30.1875 -29.710938 30.1875 -28.578125 C 29.050781 -28.578125 28.234375 -28.40625 27.734375 -28.0625 C 27.242188 -27.71875 27 -27.140625 27 -26.328125 Z M 27 -12.28125 "/></g></g></g><g fill="#4a87ce" fill-opacity="1"><g transform="translate(125.41784, 192.718406)"><g><path d="M 29.109375 -31.40625 C 29.828125 -30.625 30.1875 -29.679688 30.1875 -28.578125 C 29.4375 -28.578125 28.875 -28.507812 28.5 -28.375 C 28.125 -28.238281 27.820312 -28.035156 27.59375 -27.765625 C 27.375 -27.492188 27.085938 -27.015625 26.734375 -26.328125 L 18.90625 -12.109375 L 18.90625 -5.125 C 18.90625 -4.34375 19.320312 -3.769531 20.15625 -3.40625 C 21 -3.050781 22.019531 -2.875 23.21875 -2.875 C 23.21875 -2.332031 23.128906 -1.804688 22.953125 -1.296875 C 22.773438 -0.796875 22.535156 -0.363281 22.234375 0 L 8.6875 0 C 8.382812 -0.363281 8.140625 -0.796875 7.953125 -1.296875 C 7.773438 -1.804688 7.6875 -2.332031 7.6875 -2.875 C 8.832031 -2.875 9.804688 -3.050781 10.609375 -3.40625 C 11.421875 -3.769531 11.828125 -4.34375 11.828125 -5.125 L 11.828125 -11.0625 L 2.875 -26.59375 C 2.550781 -27.164062 2.070312 -27.640625 1.4375 -28.015625 C 0.8125 -28.390625 0.179688 -28.578125 -0.453125 -28.578125 C -0.453125 -29.679688 -0.09375 -30.625 0.625 -31.40625 L 12.78125 -31.40625 C 13.46875 -30.65625 13.8125 -29.710938 13.8125 -28.578125 C 12.007812 -28.578125 11.109375 -27.988281 11.109375 -26.8125 C 11.109375 -26.28125 11.347656 -25.53125 11.828125 -24.5625 L 16.15625 -16.421875 L 21.109375 -25.734375 C 21.253906 -26.035156 21.328125 -26.320312 21.328125 -26.59375 C 21.328125 -27.132812 21.0625 -27.597656 20.53125 -27.984375 C 20.007812 -28.378906 19.390625 -28.578125 18.671875 -28.578125 C 18.671875 -29.710938 19.015625 -30.65625 19.703125 -31.40625 Z M 29.109375 -31.40625 "/></g></g></g><g fill="#7500fa" fill-opacity="1"><g transform="translate(155.151179, 192.718406)"><g><path d="M 23.3125 -10.484375 C 23.375 -10.390625 23.851562 -9.625 24.75 -8.1875 C 25.832031 -6.445312 26.707031 -5.207031 27.375 -4.46875 C 28.050781 -3.738281 28.882812 -3.3125 29.875 -3.1875 L 29.875 -1.390625 C 29.363281 -0.703125 28.765625 -0.195312 28.078125 0.125 C 27.390625 0.457031 26.472656 0.625 25.328125 0.625 C 23.773438 0.625 22.492188 0.296875 21.484375 -0.359375 C 20.484375 -1.015625 19.75 -1.71875 19.28125 -2.46875 C 18.8125 -3.21875 18.191406 -4.375 17.421875 -5.9375 C 16.335938 -8.101562 15.320312 -9.9375 14.375 -11.4375 C 13.425781 -12.9375 12.457031 -13.894531 11.46875 -14.3125 L 11.46875 -5.125 C 11.46875 -4.289062 11.671875 -3.707031 12.078125 -3.375 C 12.484375 -3.039062 13.179688 -2.875 14.171875 -2.875 C 14.171875 -2.332031 14.082031 -1.804688 13.90625 -1.296875 C 13.726562 -0.796875 13.488281 -0.363281 13.1875 0 L 2.15625 0 C 1.851562 -0.363281 1.613281 -0.796875 1.4375 -1.296875 C 1.257812 -1.804688 1.171875 -2.332031 1.171875 -2.875 C 2.160156 -2.875 2.859375 -3.039062 3.265625 -3.375 C 3.671875 -3.707031 3.875 -4.289062 3.875 -5.125 L 3.875 -26.28125 C 3.875 -27.125 3.671875 -27.71875 3.265625 -28.0625 C 2.859375 -28.40625 2.160156 -28.578125 1.171875 -28.578125 C 1.171875 -29.085938 1.257812 -29.597656 1.4375 -30.109375 C 1.613281 -30.617188 1.851562 -31.050781 2.15625 -31.40625 L 13.1875 -31.40625 C 13.488281 -31.050781 13.726562 -30.617188 13.90625 -30.109375 C 14.082031 -29.597656 14.171875 -29.085938 14.171875 -28.578125 C 13.179688 -28.578125 12.484375 -28.40625 12.078125 -28.0625 C 11.671875 -27.71875 11.46875 -27.125 11.46875 -26.28125 L 11.46875 -17.375 C 12.164062 -17.375 12.722656 -17.34375 13.140625 -17.28125 L 19.484375 -25.6875 C 19.867188 -26.175781 20.0625 -26.71875 20.0625 -27.3125 C 20.0625 -27.675781 19.785156 -27.976562 19.234375 -28.21875 C 18.679688 -28.457031 18.085938 -28.578125 17.453125 -28.578125 C 17.453125 -29.054688 17.539062 -29.550781 17.71875 -30.0625 C 17.90625 -30.570312 18.164062 -31.019531 18.5 -31.40625 L 28.984375 -31.40625 C 29.285156 -31.019531 29.523438 -30.570312 29.703125 -30.0625 C 29.878906 -29.550781 29.96875 -29.054688 29.96875 -28.578125 C 28.082031 -28.578125 26.582031 -27.859375 25.46875 -26.421875 L 16.96875 -16.328125 C 18.34375 -15.703125 19.503906 -14.9375 20.453125 -14.03125 C 21.398438 -13.132812 22.351562 -11.953125 23.3125 -10.484375 Z M 23.3125 -10.484375 "/></g></g></g><g fill="#7500fa" fill-opacity="1"><g transform="translate(185.076149, 192.718406)"><g><path d="M 28.890625 -5.125 C 28.890625 -4.289062 29.09375 -3.707031 29.5 -3.375 C 29.90625 -3.039062 30.585938 -2.875 31.546875 -2.875 C 31.546875 -2.332031 31.453125 -1.804688 31.265625 -1.296875 C 31.085938 -0.796875 30.851562 -0.363281 30.5625 0 L 19.625 0 C 19.320312 -0.363281 19.078125 -0.796875 18.890625 -1.296875 C 18.710938 -1.804688 18.625 -2.332031 18.625 -2.875 C 19.613281 -2.875 20.3125 -3.039062 20.71875 -3.375 C 21.125 -3.707031 21.328125 -4.289062 21.328125 -5.125 L 21.328125 -14.078125 L 11.4375 -14.078125 L 11.4375 -5.125 C 11.4375 -4.289062 11.632812 -3.707031 12.03125 -3.375 C 12.4375 -3.039062 13.132812 -2.875 14.125 -2.875 C 14.125 -2.332031 14.035156 -1.804688 13.859375 -1.296875 C 13.679688 -0.796875 13.441406 -0.363281 13.140625 0 L 2.15625 0 C 1.851562 -0.363281 1.613281 -0.796875 1.4375 -1.296875 C 1.257812 -1.804688 1.171875 -2.332031 1.171875 -2.875 C 2.160156 -2.875 2.859375 -3.039062 3.265625 -3.375 C 3.671875 -3.707031 3.875 -4.289062 3.875 -5.125 L 3.875 -26.28125 C 3.875 -27.125 3.671875 -27.71875 3.265625 -28.0625 C 2.859375 -28.40625 2.160156 -28.578125 1.171875 -28.578125 C 1.171875 -29.085938 1.257812 -29.597656 1.4375 -30.109375 C 1.613281 -30.617188 1.851562 -31.050781 2.15625 -31.40625 L 13.140625 -31.40625 C 13.441406 -31.050781 13.679688 -30.617188 13.859375 -30.109375 C 14.035156 -29.597656 14.125 -29.085938 14.125 -28.578125 C 13.132812 -28.578125 12.4375 -28.40625 12.03125 -28.0625 C 11.632812 -27.71875 11.4375 -27.125 11.4375 -26.28125 L 11.4375 -17.859375 L 21.328125 -17.859375 L 21.328125 -26.28125 C 21.328125 -27.125 21.113281 -27.71875 20.6875 -28.0625 C 20.269531 -28.40625 19.582031 -28.578125 18.625 -28.578125 C 18.625 -29.085938 18.710938 -29.597656 18.890625 -30.109375 C 19.078125 -30.617188 19.320312 -31.050781 19.625 -31.40625 L 30.5625 -31.40625 C 30.851562 -31.050781 31.085938 -30.617188 31.265625 -30.109375 C 31.453125 -29.597656 31.546875 -29.085938 31.546875 -28.578125 C 30.585938 -28.578125 29.90625 -28.40625 29.5 -28.0625 C 29.09375 -27.71875 28.890625 -27.125 28.890625 -26.28125 Z M 28.890625 -5.125 "/></g></g></g><g fill="#7500fa" fill-opacity="1"><g transform="translate(217.791121, 192.718406)"><g><path d="M 27.09375 -5.9375 C 27.394531 -4.976562 27.90625 -4.226562 28.625 -3.6875 C 29.34375 -3.144531 30.109375 -2.875 30.921875 -2.875 C 30.921875 -2.332031 30.828125 -1.804688 30.640625 -1.296875 C 30.460938 -0.796875 30.207031 -0.363281 29.875 0 L 17.6875 0 C 17.351562 -0.363281 17.097656 -0.796875 16.921875 -1.296875 C 16.742188 -1.804688 16.65625 -2.332031 16.65625 -2.875 C 18.363281 -2.875 19.21875 -3.597656 19.21875 -5.046875 C 19.21875 -5.640625 19.113281 -6.34375 18.90625 -7.15625 L 18.625 -8.09375 L 8.546875 -8.09375 L 8.28125 -7.15625 C 8.007812 -6.226562 7.875 -5.566406 7.875 -5.171875 C 7.875 -3.640625 8.832031 -2.875 10.75 -2.875 C 10.75 -2.332031 10.660156 -1.804688 10.484375 -1.296875 C 10.304688 -0.796875 10.050781 -0.363281 9.71875 0 L -0.3125 0 C -0.644531 -0.363281 -0.898438 -0.796875 -1.078125 -1.296875 C -1.253906 -1.804688 -1.34375 -2.332031 -1.34375 -2.875 C -0.507812 -2.875 0.25 -3.117188 0.9375 -3.609375 C 1.632812 -4.109375 2.144531 -4.84375 2.46875 -5.8125 L 9.859375 -27.578125 C 8.660156 -27.972656 7.144531 -28.171875 5.3125 -28.171875 C 5.3125 -29.460938 5.671875 -30.539062 6.390625 -31.40625 L 18.71875 -31.40625 Z M 17.640625 -11.609375 L 14.4375 -22.765625 C 14.175781 -23.671875 13.832031 -24.4375 13.40625 -25.0625 L 9.546875 -11.609375 Z M 17.640625 -11.609375 "/></g></g></g><g fill="#7500fa" fill-opacity="1"><g transform="translate(247.356095, 192.718406)"><g><path d="M 9.453125 -5.125 C 9.453125 -3.59375 10.546875 -2.828125 12.734375 -2.828125 C 12.734375 -1.785156 12.390625 -0.84375 11.703125 0 L 2.34375 0 C 1.675781 -0.8125 1.34375 -1.753906 1.34375 -2.828125 C 2.394531 -2.828125 3.175781 -3.007812 3.6875 -3.375 C 4.195312 -3.738281 4.453125 -4.320312 4.453125 -5.125 L 4.453125 -26.28125 C 4.453125 -27.8125 3.359375 -28.578125 1.171875 -28.578125 C 1.171875 -29.085938 1.257812 -29.597656 1.4375 -30.109375 C 1.613281 -30.617188 1.851562 -31.050781 2.15625 -31.40625 L 8.421875 -31.40625 C 9.285156 -31.40625 10.148438 -31.066406 11.015625 -30.390625 C 11.890625 -29.722656 12.71875 -28.785156 13.5 -27.578125 L 23.71875 -11.4375 L 23.71875 -26.28125 C 23.71875 -27.09375 23.445312 -27.675781 22.90625 -28.03125 C 22.363281 -28.394531 21.566406 -28.578125 20.515625 -28.578125 C 20.515625 -29.117188 20.601562 -29.632812 20.78125 -30.125 C 20.96875 -30.625 21.226562 -31.050781 21.5625 -31.40625 L 31.140625 -31.40625 C 31.472656 -31.050781 31.726562 -30.617188 31.90625 -30.109375 C 32.082031 -29.597656 32.171875 -29.085938 32.171875 -28.578125 C 31.148438 -28.578125 30.375 -28.394531 29.84375 -28.03125 C 29.320312 -27.675781 29.0625 -27.09375 29.0625 -26.28125 L 29.0625 0.265625 L 27.265625 0.265625 C 25.796875 0.265625 24.71875 0.078125 24.03125 -0.296875 C 23.34375 -0.671875 22.679688 -1.320312 22.046875 -2.25 L 9.453125 -21.375 Z M 9.453125 -5.125 "/></g></g></g><g fill="#7500fa" fill-opacity="1"><g transform="translate(279.93606, 192.718406)"><g><path d="M 16.65625 0.625 C 13.5 0.625 10.75 -0.046875 8.40625 -1.390625 C 6.070312 -2.742188 4.273438 -4.617188 3.015625 -7.015625 C 1.753906 -9.421875 1.125 -12.164062 1.125 -15.25 C 1.125 -18.851562 1.742188 -21.898438 2.984375 -24.390625 C 4.234375 -26.878906 5.96875 -28.753906 8.1875 -30.015625 C 10.40625 -31.273438 12.972656 -31.90625 15.890625 -31.90625 C 17.773438 -31.90625 19.585938 -31.578125 21.328125 -30.921875 C 21.773438 -31.128906 22.425781 -31.335938 23.28125 -31.546875 C 24.132812 -31.753906 24.804688 -31.875 25.296875 -31.90625 C 26.160156 -29.6875 26.59375 -26.296875 26.59375 -21.734375 L 22.234375 -21.734375 C 21.929688 -23.648438 21.1875 -25.132812 20 -26.1875 C 18.8125 -27.238281 17.394531 -27.765625 15.75 -27.765625 C 13.769531 -27.765625 12.21875 -26.914062 11.09375 -25.21875 C 9.96875 -23.53125 9.40625 -20.597656 9.40625 -16.421875 C 9.40625 -11.804688 9.957031 -8.535156 11.0625 -6.609375 C 12.175781 -4.691406 13.875 -3.734375 16.15625 -3.734375 C 17 -3.734375 17.703125 -3.820312 18.265625 -4 C 18.835938 -4.1875 19.316406 -4.488281 19.703125 -4.90625 L 19.703125 -10.03125 C 19.703125 -10.8125 19.363281 -11.375 18.6875 -11.71875 C 18.019531 -12.0625 16.96875 -12.234375 15.53125 -12.234375 C 15.53125 -12.773438 15.632812 -13.40625 15.84375 -14.125 C 16.050781 -14.84375 16.304688 -15.367188 16.609375 -15.703125 L 26.328125 -15.703125 C 27.492188 -15.703125 28.300781 -15.359375 28.75 -14.671875 C 29.207031 -13.984375 29.4375 -13.320312 29.4375 -12.6875 C 29.4375 -12.382812 29.359375 -12.113281 29.203125 -11.875 C 28.117188 -11.875 27.28125 -11.753906 26.6875 -11.515625 L 26.6875 -6.34375 C 26.6875 -5.382812 26.851562 -4.707031 27.1875 -4.3125 C 27.394531 -4.101562 27.5 -3.835938 27.5 -3.515625 C 27.5 -2.972656 27.003906 -2.367188 26.015625 -1.703125 C 25.023438 -1.046875 23.695312 -0.492188 22.03125 -0.046875 C 20.363281 0.398438 18.570312 0.625 16.65625 0.625 Z M 16.65625 0.625 "/></g></g></g><g clip-path="url(#dee72cbcb2)"><path fill="#7500fa" d="M 303.59375 225.136719 C 308.359375 224.5625 313.855469 226.449219 318.226562 223.792969 C 322.476562 221.214844 322.046875 215.117188 321.847656 210.816406 C 321.410156 201.097656 319.089844 189.464844 325.734375 181.1875 C 327.3125 179.230469 329.308594 177.636719 331.546875 176.636719 C 330.105469 175.867188 328.777344 174.863281 327.621094 173.707031 C 324.226562 170.3125 322.367188 165.730469 321.636719 161.019531 C 320.8125 155.707031 321.335938 150.351562 321.726562 145.023438 C 321.925781 142.28125 322.089844 139.527344 321.96875 136.777344 C 321.878906 134.789062 321.648438 132.410156 320.269531 130.855469 C 318.671875 129.054688 315.945312 128.597656 313.667969 128.542969 C 310.605469 128.472656 307.578125 128.957031 304.519531 128.589844 C 303.3125 128.445312 302.289062 125.441406 303.96875 125.640625 C 308.765625 126.21875 313.703125 124.609375 318.292969 126.734375 C 322.703125 128.773438 324.117188 133.566406 324.316406 138.089844 C 324.558594 143.609375 323.6875 149.097656 323.550781 154.609375 C 323.425781 159.46875 323.851562 164.652344 326.363281 168.925781 C 328.785156 173.042969 333.460938 175.839844 338.261719 175.164062 C 339.300781 175.015625 340.390625 177.0625 339.886719 177.859375 C 339.859375 178.320312 339.605469 178.644531 339.011719 178.5625 C 334.675781 177.953125 330.429688 180.339844 327.757812 183.664062 C 324.664062 187.515625 323.636719 192.585938 323.472656 197.429688 C 323.285156 202.839844 324.117188 208.214844 324.25 213.613281 C 324.359375 217.988281 324.285156 223.433594 320.394531 226.273438 C 315.851562 229.589844 309.835938 227.519531 304.71875 228.132812 C 303.464844 228.289062 302.152344 225.3125 303.59375 225.136719 Z M 303.59375 225.136719 " fill-opacity="1" fill-rule="nonzero"/></g><g clip-path="url(#2c5d56823a)"><path fill="#7500fa" d="M 71.394531 225.136719 C 66.632812 224.5625 61.132812 226.449219 56.761719 223.792969 C 52.511719 221.214844 52.941406 215.117188 53.140625 210.816406 C 53.578125 201.097656 55.898438 189.464844 49.253906 181.1875 C 47.675781 179.230469 45.679688 177.636719 43.441406 176.636719 C 44.882812 175.867188 46.210938 174.863281 47.367188 173.707031 C 50.761719 170.3125 52.621094 165.730469 53.351562 161.019531 C 54.175781 155.707031 53.652344 150.351562 53.261719 145.023438 C 53.0625 142.28125 52.902344 139.527344 53.019531 136.777344 C 53.109375 134.789062 53.339844 132.410156 54.71875 130.855469 C 56.320312 129.054688 59.042969 128.597656 61.320312 128.542969 C 64.382812 128.472656 67.410156 128.957031 70.46875 128.589844 C 71.675781 128.445312 72.699219 125.441406 71.019531 125.640625 C 66.222656 126.21875 61.285156 124.609375 56.695312 126.734375 C 52.285156 128.773438 50.875 133.566406 50.671875 138.089844 C 50.429688 143.609375 51.300781 149.097656 51.4375 154.609375 C 51.5625 159.46875 51.136719 164.652344 48.625 168.925781 C 46.203125 173.042969 41.527344 175.839844 36.726562 175.164062 C 35.6875 175.015625 34.597656 177.0625 35.101562 177.859375 C 35.128906 178.320312 35.382812 178.644531 35.976562 178.5625 C 40.3125 177.953125 44.558594 180.339844 47.230469 183.664062 C 50.324219 187.515625 51.351562 192.585938 51.515625 197.429688 C 51.703125 202.839844 50.871094 208.214844 50.738281 213.613281 C 50.628906 217.988281 50.703125 223.433594 54.59375 226.273438 C 59.136719 229.589844 65.152344 227.519531 70.269531 228.132812 C 71.527344 228.289062 72.835938 225.3125 71.394531 225.136719 Z M 71.394531 225.136719 " fill-opacity="1" fill-rule="nonzero"/></g></svg>